<?xml version="1.0" encoding="utf-8"?>
<!-- Generator: Adobe Illustrator 28.0.0, SVG Export Plug-In . SVG Version: 6.00 Build 0)  -->
<svg version="1.1" xmlns="http://www.w3.org/2000/svg" xmlns:xlink="http://www.w3.org/1999/xlink" x="0px" y="0px"
	 viewBox="0 0 416 408" style="enable-background:new 0 0 416 408;" xml:space="preserve">
<style type="text/css">
	.st0{fill:#F5F5F5;}
	.st1{display:none;}
	.st2{display:inline;}
	.st3{fill:#323232;}
</style>
<g id="Ebene_3">
	<circle class="st0" cx="211.58" cy="210.52" r="176.5"/>
</g>
<g id="Ebene_1" class="st1">
	<g class="st2">
		<path class="st3" d="M144.02,121.72c0,0-24.95,41.53,0,79.75l63.52,119.12l67.3-123.26c0,0,36.67-70.7-43.48-105.49
			C231.35,91.85,177.67,72.19,144.02,121.72z"/>
		<circle class="st0" cx="207.5" cy="160.5" r="38.5"/>
	</g>
</g>
<g id="Ebene_2">
	<g>
		<g>
			<path class="st3" d="M119.24,137.34c-0.13-1.64,1.1-3.17,2.73-3.38c0,0,119.91-15.9,177.04,0.39l-2.08,33.27
				c-0.1,1.65-1.54,2.97-3.19,2.94l-168.84,0.05c-1.65,0-3.11-1.35-3.24-2.99L119.24,137.34z"/>
		</g>
		<g>
			<path class="st3" d="M154.19,277.77c0.35,1.61,1.99,2.99,3.64,3.07c0,0,96.48,4.57,109.21-1.56l19.59-110.33
				c0.29-1.62-0.83-2.95-2.48-2.95l-151.45,0.13c-1.65,0-2.71,1.32-2.36,2.93L154.19,277.77z"/>
		</g>
		<g>
			<path class="st3" d="M155.64,303.18c0.59,1.54,2.42,2.91,4.07,3.04c0,0,66.79,5.4,106.86-1.27l9.78-25.92
				c0.58-1.54-0.29-2.74-1.94-2.66l-7.23,0.36c-0.07,0-0.12,0.06-0.14,0.14c-0.21,0.9-5.9,6.11-112.22,1.41l-5.96-0.34
				c-1.65-0.09-2.51,1.09-1.92,2.63L155.64,303.18z"/>
		</g>
	</g>
</g>
</svg>
