<?xml version="1.0" encoding="utf-8"?>
<!-- Generator: Adobe Illustrator 28.0.0, SVG Export Plug-In . SVG Version: 6.00 Build 0)  -->
<svg version="1.1" xmlns="http://www.w3.org/2000/svg" xmlns:xlink="http://www.w3.org/1999/xlink" x="0px" y="0px"
	 viewBox="0 0 416 408" style="enable-background:new 0 0 416 408;" xml:space="preserve">
<style type="text/css">
	.st0{fill:#F5F5F5;}
	.st1{fill:#323232;}
	.st2{display:none;}
	.st3{display:inline;}
</style>
<g id="Ebene_3">
	<circle class="st0" cx="211.58" cy="210.52" r="176.5"/>
</g>
<g id="Ebene_1">
	<g>
		<path class="st1" d="M144.03,125.17c0,0-26.03,43.32,0,83.18l66.25,124.25l70.19-128.56c0,0,38.25-73.74-45.35-110.02
			C235.13,94.02,179.13,73.51,144.03,125.17z"/>
		<circle class="st0" cx="210.25" cy="165.62" r="40.16"/>
	</g>
</g>
<g id="Ebene_4" class="st2">
	<g class="st3">
		<path class="st1" d="M108.7,120.1c0,0,54.19-2.64,82.38,19.38s13.66,62.12,2.2,71.81c-11.45,9.69-39.21,21.15-69.17-2.64
			s-20.27-85.03-20.27-85.03S104.74,120.1,108.7,120.1z"/>
		<path class="st1" d="M327.02,144.1c0,0,4.79,54.04-16.1,83.09c-20.89,29.05-61.53,16.11-71.67,5.05
			c-10.14-11.06-22.68-38.34-0.1-69.22s84.16-23.62,84.16-23.62S326.86,140.14,327.02,144.1z"/>
		<path class="st1" d="M171.89,191.77c9.96,14.9,24.48,47.71,29.33,67.98s5.29,58.15,5.29,58.15s-1.32,6.61,4.41,6.61
			s5.53-6.3,5.53-6.3c-0.2-12.9,2.84-32.91,2.84-32.91c3.52-65.2,66.96-94.72,66.96-94.72c4.41-8.81-4.85-8.37-4.85-8.37
			c-53.31,18.94-69.61,82.38-69.61,82.38c-6.61-66.96-51.54-102.65-59.92-103.09s-6.17,7.05-6.17,7.05S165.91,182.83,171.89,191.77z
			"/>
	</g>
</g>
<g id="Ebene_2" class="st2">
	<g class="st3">
		<g>
			<path class="st1" d="M119.24,137.34c-0.13-1.64,1.1-3.17,2.73-3.38c0,0,119.91-15.9,177.04,0.39l-2.08,33.27
				c-0.1,1.65-1.54,2.97-3.19,2.94l-168.84,0.05c-1.65,0-3.11-1.35-3.24-2.99L119.24,137.34z"/>
		</g>
		<g>
			<path class="st1" d="M154.19,277.77c0.35,1.61,1.99,2.99,3.64,3.07c0,0,96.48,4.57,109.21-1.56l19.59-110.33
				c0.29-1.62-0.83-2.95-2.48-2.95l-151.45,0.13c-1.65,0-2.71,1.32-2.36,2.93L154.19,277.77z"/>
		</g>
		<g>
			<path class="st1" d="M155.64,303.18c0.59,1.54,2.42,2.91,4.07,3.04c0,0,66.79,5.4,106.86-1.27l9.78-25.92
				c0.58-1.54-0.29-2.74-1.94-2.66l-7.23,0.36c-0.07,0-0.12,0.06-0.14,0.14c-0.21,0.9-5.9,6.11-112.22,1.41l-5.96-0.34
				c-1.65-0.09-2.51,1.09-1.92,2.63L155.64,303.18z"/>
		</g>
	</g>
</g>
</svg>
